<?xml version="1.0" encoding="us-ascii" standalone="no"?><svg xmlns="http://www.w3.org/2000/svg" xmlns:xlink="http://www.w3.org/1999/xlink" contentStyleType="text/css" height="2908px" preserveAspectRatio="none" style="width:1040px;height:2908px;background:#F9F9F7;" version="1.1" viewBox="0 0 1040 2908" width="1040px" zoomAndPan="magnify"><defs/><g><rect fill="#F9F9F7" height="2908" style="stroke:none;stroke-width:1.0;" width="1040" x="0" y="0"/><!--cluster Application Vite & Gourmand--><g id="cluster_Application Vite &amp; Gourmand"><path d="M473.5,71.02 L659.5,71.02 A3.75,3.75 0 0 1 662,73.52 L669,93.3716 L1030.5,93.3716 A2.5,2.5 0 0 1 1033,95.8716 L1033,2898.52 A2.5,2.5 0 0 1 1030.5,2901.02 L473.5,2901.02 A2.5,2.5 0 0 1 471,2898.52 L471,73.52 A2.5,2.5 0 0 1 473.5,71.02 " fill="#F0F5F1" style="stroke:#063A1F;stroke-width:1.5;"/><line style="stroke:#063A1F;stroke-width:1.5;" x1="471" x2="669" y1="93.3716" y2="93.3716"/><text fill="#063A1F" font-family="sans-serif" font-size="13" font-weight="bold" lengthAdjust="spacing" textLength="185" x="475" y="86.5151">Application Vite &amp; Gourmand</text></g><g id="elem_UC1"><ellipse cx="610.2168" cy="1082.8658" fill="#FFFFFF" rx="94.2168" ry="24.3458" style="stroke:#800020;stroke-width:0.5;"/><text fill="#063A1F" font-family="sans-serif" font-size="12" font-weight="bold" lengthAdjust="spacing" textLength="117" x="551.7168" y="1078.2291">Consulter les menus</text><text fill="#063A1F" font-family="sans-serif" font-size="12" font-weight="bold" lengthAdjust="spacing" textLength="45" x="587.7168" y="1093.3228">&amp; filtres</text></g><g id="elem_UC2"><ellipse cx="610.1102" cy="1166.8658" fill="#FFFFFF" rx="83.6102" ry="24.3458" style="stroke:#800020;stroke-width:0.5;"/><text fill="#063A1F" font-family="sans-serif" font-size="12" font-weight="bold" lengthAdjust="spacing" textLength="102" x="559.1102" y="1162.2291">Consulter le d&#233;tail</text><text fill="#063A1F" font-family="sans-serif" font-size="12" font-weight="bold" lengthAdjust="spacing" textLength="59" x="580.6102" y="1177.3228">d'un menu</text></g><g id="elem_UC3"><ellipse cx="609.7681" cy="1245.0736" fill="#FFFFFF" rx="80.7681" ry="18.5536" style="stroke:#800020;stroke-width:0.5;"/><text fill="#063A1F" font-family="sans-serif" font-size="12" font-weight="bold" lengthAdjust="spacing" textLength="124" x="547.7681" y="1247.9838">Contacter l'entreprise</text></g><g id="elem_UC4"><ellipse cx="609.8528" cy="1322.8658" fill="#FFFFFF" rx="87.8528" ry="24.3458" style="stroke:#800020;stroke-width:0.5;"/><text fill="#063A1F" font-family="sans-serif" font-size="12" font-weight="bold" lengthAdjust="spacing" textLength="102" x="558.8528" y="1318.2291">Consulter les CGV</text><text fill="#063A1F" font-family="sans-serif" font-size="12" font-weight="bold" lengthAdjust="spacing" textLength="108" x="555.8528" y="1333.3228">&amp; Mentions l&#233;gales</text></g><g id="elem_UC5"><ellipse cx="609.8762" cy="1396.1929" fill="#FFFFFF" rx="50.3762" ry="13.6729" style="stroke:#800020;stroke-width:0.5;"/><text fill="#063A1F" font-family="sans-serif" font-size="12" font-weight="bold" lengthAdjust="spacing" textLength="55" x="582.3762" y="1399.103">S'inscrire</text></g><g id="elem_UC6"><ellipse cx="955.9645" cy="1155.1129" fill="#FFFFFF" rx="60.9645" ry="14.5929" style="stroke:#800020;stroke-width:0.5;"/><text fill="#063A1F" font-family="sans-serif" font-size="12" font-weight="bold" lengthAdjust="spacing" textLength="76" x="917.9645" y="1158.0231">Se connecter</text></g><g id="elem_UC7"><ellipse cx="610.1249" cy="604.8658" fill="#FFFFFF" rx="75.1249" ry="24.3458" style="stroke:#800020;stroke-width:0.5;"/><text fill="#063A1F" font-family="sans-serif" font-size="12" font-weight="bold" lengthAdjust="spacing" textLength="67" x="576.6249" y="600.2291">R&#233;initialiser</text><text fill="#063A1F" font-family="sans-serif" font-size="12" font-weight="bold" lengthAdjust="spacing" textLength="90" x="565.1249" y="615.3228">le mot de passe</text></g><g id="elem_UC8"><ellipse cx="609.942" cy="1460.2084" fill="#FFFFFF" rx="66.442" ry="15.6884" style="stroke:#800020;stroke-width:0.5;"/><text fill="#063A1F" font-family="sans-serif" font-size="12" font-weight="bold" lengthAdjust="spacing" textLength="90" x="564.942" y="1463.1185">Se d&#233;connecter</text></g><g id="elem_UC9"><ellipse cx="609.7889" cy="1529.7778" fill="#FFFFFF" rx="84.2889" ry="19.2578" style="stroke:#800020;stroke-width:0.5;"/><text fill="#063A1F" font-family="sans-serif" font-size="12" font-weight="bold" lengthAdjust="spacing" textLength="132" x="543.7889" y="1532.6879">Passer une commande</text></g><g id="elem_UC10"><ellipse cx="610.0113" cy="1604.2223" fill="#FFFFFF" rx="86.5113" ry="19.7023" style="stroke:#800020;stroke-width:0.5;"/><text fill="#063A1F" font-family="sans-serif" font-size="12" font-weight="bold" lengthAdjust="spacing" textLength="137" x="541.5113" y="1607.1324">Modifier une commande</text></g><g id="elem_UC11"><ellipse cx="610.1204" cy="1678.0441" fill="#FFFFFF" rx="85.6204" ry="19.5241" style="stroke:#800020;stroke-width:0.5;"/><text fill="#063A1F" font-family="sans-serif" font-size="12" font-weight="bold" lengthAdjust="spacing" textLength="135" x="542.6204" y="1680.9542">Annuler une commande</text></g><g id="elem_UC12"><ellipse cx="610.1759" cy="1751.9552" fill="#FFFFFF" rx="85.1759" ry="19.4352" style="stroke:#800020;stroke-width:0.5;"/><text fill="#063A1F" font-family="sans-serif" font-size="12" font-weight="bold" lengthAdjust="spacing" textLength="134" x="543.1759" y="1754.8653">Suivre ses commandes</text></g><g id="elem_UC13"><ellipse cx="609.8456" cy="1821.8891" fill="#FFFFFF" rx="64.8456" ry="15.3691" style="stroke:#800020;stroke-width:0.5;"/><text fill="#063A1F" font-family="sans-serif" font-size="12" font-weight="bold" lengthAdjust="spacing" textLength="86" x="566.8456" y="1824.7993">Laisser un avis</text></g><g id="elem_UC14"><ellipse cx="609.9031" cy="1896.8658" fill="#FFFFFF" rx="82.9031" ry="24.3458" style="stroke:#800020;stroke-width:0.5;"/><text fill="#063A1F" font-family="sans-serif" font-size="12" font-weight="bold" lengthAdjust="spacing" textLength="101" x="559.4031" y="1892.2291">Modifier ses infos</text><text fill="#063A1F" font-family="sans-serif" font-size="12" font-weight="bold" lengthAdjust="spacing" textLength="74" x="572.9031" y="1907.3228">personnelles</text></g><g id="elem_UC15"><ellipse cx="609.9533" cy="2148.8658" fill="#FFFFFF" rx="77.9533" ry="24.3458" style="stroke:#800020;stroke-width:0.5;"/><text fill="#063A1F" font-family="sans-serif" font-size="12" font-weight="bold" lengthAdjust="spacing" textLength="94" x="562.9533" y="2144.2291">G&#233;rer les menus</text><text fill="#063A1F" font-family="sans-serif" font-size="12" font-weight="bold" lengthAdjust="spacing" textLength="40" x="589.9533" y="2159.3228">(CRUD)</text></g><g id="elem_UC16"><ellipse cx="610.1751" cy="2232.8658" fill="#FFFFFF" rx="70.1751" ry="24.3458" style="stroke:#800020;stroke-width:0.5;"/><text fill="#063A1F" font-family="sans-serif" font-size="12" font-weight="bold" lengthAdjust="spacing" textLength="83" x="568.6751" y="2228.2291">G&#233;rer les plats</text><text fill="#063A1F" font-family="sans-serif" font-size="12" font-weight="bold" lengthAdjust="spacing" textLength="40" x="590.1751" y="2243.3228">(CRUD)</text></g><g id="elem_UC17"><ellipse cx="609.776" cy="2309.7752" fill="#FFFFFF" rx="71.776" ry="16.7552" style="stroke:#800020;stroke-width:0.5;"/><text fill="#063A1F" font-family="sans-serif" font-size="12" font-weight="bold" lengthAdjust="spacing" textLength="103" x="558.276" y="2312.6853">G&#233;rer les horaires</text></g><g id="elem_UC18"><ellipse cx="610.1604" cy="2386.8658" fill="#FFFFFF" rx="78.6604" ry="24.3458" style="stroke:#800020;stroke-width:0.5;"/><text fill="#063A1F" font-family="sans-serif" font-size="12" font-weight="bold" lengthAdjust="spacing" textLength="95" x="562.6604" y="2382.2291">G&#233;rer les statuts</text><text fill="#063A1F" font-family="sans-serif" font-size="12" font-weight="bold" lengthAdjust="spacing" textLength="81" x="569.6604" y="2397.3228">de commande</text></g><g id="elem_UC19"><ellipse cx="610.0828" cy="133.0366" fill="#FFFFFF" rx="123.0828" ry="27.0166" style="stroke:#800020;stroke-width:0.5;"/><text fill="#063A1F" font-family="sans-serif" font-size="12" font-weight="bold" lengthAdjust="spacing" textLength="216" x="502.0828" y="135.9467">Annuler une commande (par employ&#233;)</text></g><g id="elem_UC20"><ellipse cx="610.0831" cy="213.8366" fill="#FFFFFF" rx="82.0831" ry="18.8166" style="stroke:#800020;stroke-width:0.5;"/><text fill="#063A1F" font-family="sans-serif" font-size="12" font-weight="bold" lengthAdjust="spacing" textLength="127" x="546.5831" y="216.7468">Filtrer les commandes</text></g><g id="elem_UC21"><ellipse cx="609.9533" cy="292.8658" fill="#FFFFFF" rx="77.9533" ry="24.3458" style="stroke:#800020;stroke-width:0.5;"/><text fill="#063A1F" font-family="sans-serif" font-size="12" font-weight="bold" lengthAdjust="spacing" textLength="94" x="562.9533" y="288.2291">Valider / Refuser</text><text fill="#063A1F" font-family="sans-serif" font-size="12" font-weight="bold" lengthAdjust="spacing" textLength="40" x="589.9533" y="303.3228">un avis</text></g><g id="elem_UC22"><ellipse cx="610.1604" cy="2544.8658" fill="#FFFFFF" rx="78.6604" ry="24.3458" style="stroke:#800020;stroke-width:0.5;"/><text fill="#063A1F" font-family="sans-serif" font-size="12" font-weight="bold" lengthAdjust="spacing" textLength="95" x="562.6604" y="2540.2291">Cr&#233;er un compte</text><text fill="#063A1F" font-family="sans-serif" font-size="12" font-weight="bold" lengthAdjust="spacing" textLength="48" x="586.1604" y="2555.3228">employ&#233;</text></g><g id="elem_UC23"><ellipse cx="610.1665" cy="2628.8658" fill="#FFFFFF" rx="99.1665" ry="24.3458" style="stroke:#800020;stroke-width:0.5;"/><text fill="#063A1F" font-family="sans-serif" font-size="12" font-weight="bold" lengthAdjust="spacing" textLength="124" x="548.1665" y="2624.2291">D&#233;sactiver un compte</text><text fill="#063A1F" font-family="sans-serif" font-size="12" font-weight="bold" lengthAdjust="spacing" textLength="48" x="586.1665" y="2639.3228">employ&#233;</text></g><g id="elem_UC24"><ellipse cx="610.0984" cy="2708.9397" fill="#FFFFFF" rx="90.0984" ry="20.4197" style="stroke:#800020;stroke-width:0.5;"/><text fill="#063A1F" font-family="sans-serif" font-size="12" font-weight="bold" lengthAdjust="spacing" textLength="145" x="537.5984" y="2711.8498">Consulter les statistiques</text></g><g id="elem_UC25"><ellipse cx="610.196" cy="2788.8658" fill="#FFFFFF" rx="82.196" ry="24.3458" style="stroke:#800020;stroke-width:0.5;"/><text fill="#063A1F" font-family="sans-serif" font-size="12" font-weight="bold" lengthAdjust="spacing" textLength="87" x="566.696" y="2784.2291">Consulter le CA</text><text fill="#063A1F" font-family="sans-serif" font-size="12" font-weight="bold" lengthAdjust="spacing" textLength="100" x="560.196" y="2799.3228">par menu/p&#233;riode</text></g><g id="elem_UC26"><ellipse cx="610.2057" cy="683.1611" fill="#FFFFFF" rx="81.2057" ry="18.6411" style="stroke:#800020;stroke-width:0.5;"/><text fill="#063A1F" font-family="sans-serif" font-size="12" font-weight="bold" lengthAdjust="spacing" textLength="125" x="547.7057" y="686.0713">Consulter la page RSE</text></g><g id="elem_UC27"><ellipse cx="610.2201" cy="758.164" fill="#FFFFFF" rx="93.7201" ry="21.144" style="stroke:#800020;stroke-width:0.5;"/><text fill="#063A1F" font-family="sans-serif" font-size="12" font-weight="bold" lengthAdjust="spacing" textLength="153" x="533.7201" y="761.0742">Consulter les certifications</text></g><g id="elem_UC28"><ellipse cx="610.148" cy="834.8496" fill="#FFFFFF" rx="89.648" ry="20.3296" style="stroke:#800020;stroke-width:0.5;"/><text fill="#063A1F" font-family="sans-serif" font-size="12" font-weight="bold" lengthAdjust="spacing" textLength="144" x="538.148" y="837.7598">Consulter les partenaires</text></g><g id="elem_UC29"><ellipse cx="609.9239" cy="914.8658" fill="#FFFFFF" rx="94.9239" ry="24.3458" style="stroke:#800020;stroke-width:0.5;"/><text fill="#063A1F" font-family="sans-serif" font-size="12" font-weight="bold" lengthAdjust="spacing" textLength="118" x="550.9239" y="910.2291">Consulter l'expertise</text><text fill="#063A1F" font-family="sans-serif" font-size="12" font-weight="bold" lengthAdjust="spacing" textLength="61" x="579.4239" y="925.3228">de l'&#233;quipe</text></g><g id="elem_UC30"><ellipse cx="610.1812" cy="998.8658" fill="#FFFFFF" rx="90.6812" ry="24.3458" style="stroke:#800020;stroke-width:0.5;"/><text fill="#063A1F" font-family="sans-serif" font-size="12" font-weight="bold" lengthAdjust="spacing" textLength="112" x="554.1812" y="994.2291">Consulter les offres</text><text fill="#063A1F" font-family="sans-serif" font-size="12" font-weight="bold" lengthAdjust="spacing" textLength="83" x="568.6812" y="1009.3228">anti-gaspillage</text></g><g id="elem_UC31"><ellipse cx="610.1665" cy="1980.8658" fill="#FFFFFF" rx="99.1665" ry="24.3458" style="stroke:#800020;stroke-width:0.5;"/><text fill="#063A1F" font-family="sans-serif" font-size="12" font-weight="bold" lengthAdjust="spacing" textLength="124" x="548.1665" y="1976.2291">Commander une offre</text><text fill="#063A1F" font-family="sans-serif" font-size="12" font-weight="bold" lengthAdjust="spacing" textLength="83" x="568.6665" y="1991.3228">anti-gaspillage</text></g><g id="elem_UC32"><ellipse cx="609.8736" cy="2064.8658" fill="#FFFFFF" rx="99.8736" ry="24.3458" style="stroke:#800020;stroke-width:0.5;"/><text fill="#063A1F" font-family="sans-serif" font-size="12" font-weight="bold" lengthAdjust="spacing" textLength="125" x="547.3736" y="2060.2291">S'abonner aux alertes</text><text fill="#063A1F" font-family="sans-serif" font-size="12" font-weight="bold" lengthAdjust="spacing" textLength="83" x="568.3736" y="2075.3228">anti-gaspillage</text></g><g id="elem_UC33"><ellipse cx="609.9178" cy="376.8658" fill="#FFFFFF" rx="74.4178" ry="24.3458" style="stroke:#800020;stroke-width:0.5;"/><text fill="#063A1F" font-family="sans-serif" font-size="12" font-weight="bold" lengthAdjust="spacing" textLength="89" x="565.4178" y="372.2291">G&#233;rer les offres</text><text fill="#063A1F" font-family="sans-serif" font-size="12" font-weight="bold" lengthAdjust="spacing" textLength="83" x="568.4178" y="387.3228">anti-gaspillage</text></g><g id="elem_UC34"><ellipse cx="610.0255" cy="2867.2251" fill="#FFFFFF" rx="79.0255" ry="18.2051" style="stroke:#800020;stroke-width:0.5;"/><text fill="#063A1F" font-family="sans-serif" font-size="12" font-weight="bold" lengthAdjust="spacing" textLength="120" x="550.0255" y="2870.1353">G&#233;rer le contenu RSE</text></g><g id="elem_UC35"><ellipse cx="609.9045" cy="2466.1009" fill="#FFFFFF" rx="83.4045" ry="19.0809" style="stroke:#800020;stroke-width:0.5;"/><text fill="#063A1F" font-family="sans-serif" font-size="12" font-weight="bold" lengthAdjust="spacing" textLength="130" x="544.9045" y="2469.0111">G&#233;rer les certifications</text></g><g id="elem_UC36"><ellipse cx="609.96" cy="454.812" fill="#FFFFFF" rx="79.46" ry="18.292" style="stroke:#800020;stroke-width:0.5;"/><text fill="#063A1F" font-family="sans-serif" font-size="12" font-weight="bold" lengthAdjust="spacing" textLength="121" x="549.46" y="457.7222">G&#233;rer les partenaires</text></g><g id="elem_UC37"><ellipse cx="610.2271" cy="526.9654" fill="#FFFFFF" rx="77.7271" ry="17.9454" style="stroke:#800020;stroke-width:0.5;"/><text fill="#063A1F" font-family="sans-serif" font-size="12" font-weight="bold" lengthAdjust="spacing" textLength="117" x="551.7271" y="529.8756">G&#233;rer la page &#233;quipe</text></g><!--entity V--><g id="elem_V"><ellipse cx="402" cy="970.02" fill="#D4AF37" rx="8" ry="8" style="stroke:#063A1F;stroke-width:0.5;"/><path d="M402,978.02 L402,1005.02 M389,986.02 L415,986.02 M402,1005.02 L389,1020.02 M402,1005.02 L415,1020.02 " fill="none" style="stroke:#063A1F;stroke-width:0.5;"/><text fill="#063A1F" font-family="sans-serif" font-size="12" font-weight="bold" lengthAdjust="spacing" textLength="44" x="380" y="1033.977">Visiteur</text></g><!--entity U--><g id="elem_U"><ellipse cx="290" cy="1649.02" fill="#D4AF37" rx="8" ry="8" style="stroke:#063A1F;stroke-width:0.5;"/><path d="M290,1657.02 L290,1684.02 M277,1665.02 L303,1665.02 M290,1684.02 L277,1699.02 M290,1684.02 L303,1699.02 " fill="none" style="stroke:#063A1F;stroke-width:0.5;"/><text fill="#063A1F" font-family="sans-serif" font-size="12" font-weight="bold" lengthAdjust="spacing" textLength="58" x="261" y="1712.977">Utilisateur</text></g><!--entity E--><g id="elem_E"><ellipse cx="176" cy="941.02" fill="#D4AF37" rx="8" ry="8" style="stroke:#063A1F;stroke-width:0.5;"/><path d="M176,949.02 L176,976.02 M163,957.02 L189,957.02 M176,976.02 L163,991.02 M176,976.02 L189,991.02 " fill="none" style="stroke:#063A1F;stroke-width:0.5;"/><text fill="#063A1F" font-family="sans-serif" font-size="12" font-weight="bold" lengthAdjust="spacing" textLength="48" x="152" y="1004.977">Employ&#233;</text></g><!--entity A--><g id="elem_A"><ellipse cx="48.5" cy="2600.02" fill="#D4AF37" rx="8" ry="8" style="stroke:#063A1F;stroke-width:0.5;"/><path d="M48.5,2608.02 L48.5,2635.02 M35.5,2616.02 L61.5,2616.02 M48.5,2635.02 L35.5,2650.02 M48.5,2635.02 L61.5,2650.02 " fill="none" style="stroke:#063A1F;stroke-width:0.5;"/><text fill="#063A1F" font-family="sans-serif" font-size="12" font-weight="bold" lengthAdjust="spacing" textLength="85" x="6" y="2663.977">Administrateur</text></g><!--link U to V--><g id="link_U_V"><path d="M297.15,1640.06 C316.45,1520.94 372.7826,1173.2285 392.0126,1054.4785 " fill="none" id="U-to-V" style="stroke:#063A1F;stroke-width:1.0;"/><polygon fill="none" points="394.89,1036.71,386.0898,1053.5194,397.9355,1055.4377,394.89,1036.71" style="stroke:#063A1F;stroke-width:1.0;"/></g><!--link E to U--><g id="link_E_U"><path d="M182.94,1007.59 C202.32,1130.08 260.7384,1499.3509 280.1884,1622.3409 " fill="none" id="E-to-U" style="stroke:#063A1F;stroke-width:1.0;"/><polygon fill="none" points="283,1640.12,286.1147,1621.4037,274.262,1623.2782,283,1640.12" style="stroke:#063A1F;stroke-width:1.0;"/></g><!--link A to E--><g id="link_A_E"><path d="M52.36,2591.25 C69.2,2368.67 153.9619,1248.0987 170.7919,1025.6787 " fill="none" id="A-to-E" style="stroke:#063A1F;stroke-width:1.0;"/><polygon fill="none" points="172.15,1007.73,164.809,1025.226,176.7748,1026.1314,172.15,1007.73" style="stroke:#063A1F;stroke-width:1.0;"/></g><!--link V to UC1--><g id="link_V_UC1"><path d="M424.15,1016.42 C435.19,1024.81 449.23,1034.45 463,1041.02 C486.21,1052.1 507.1199,1059.2568 531.2999,1065.8268 " fill="none" id="V-to-UC1" style="stroke:#063A1F;stroke-width:1.0;"/><polygon fill="#063A1F" points="537.09,1067.4,529.4537,1061.1801,532.2649,1066.089,527.3561,1068.9002,537.09,1067.4" style="stroke:#063A1F;stroke-width:1.0;"/></g><!--link V to UC2--><g id="link_V_UC2"><path d="M411.95,1036.73 C420.51,1064.9 436.2,1102.3 463,1125.02 C482.51,1141.56 502.3789,1150.1459 526.7589,1156.2359 " fill="none" id="V-to-UC2" style="stroke:#063A1F;stroke-width:1.0;"/><polygon fill="#063A1F" points="532.58,1157.69,524.8177,1151.6281,527.7291,1156.4783,522.8789,1159.3896,532.58,1157.69" style="stroke:#063A1F;stroke-width:1.0;"/></g><!--link V to UC3--><g id="link_V_UC3"><path d="M402.94,1036.57 C404.98,1083.59 415.78,1163.49 463,1209.02 C481.14,1226.51 500.4701,1234.7257 524.8401,1239.6757 " fill="none" id="V-to-UC3" style="stroke:#063A1F;stroke-width:1.0;"/><polygon fill="#063A1F" points="530.72,1240.87,522.6963,1235.1586,525.8201,1239.8747,521.1039,1242.9985,530.72,1240.87" style="stroke:#063A1F;stroke-width:1.0;"/></g><!--link V to UC4--><g id="link_V_UC4"><path d="M406.26,1036.76 C412.92,1105.19 430.28,1245.91 463,1281.02 C479.54,1298.77 497.2427,1307.6815 520.5727,1313.7415 " fill="none" id="V-to-UC4" style="stroke:#063A1F;stroke-width:1.0;"/><polygon fill="#063A1F" points="526.38,1315.25,518.6747,1309.1158,521.5406,1313.993,516.6634,1316.8588,526.38,1315.25" style="stroke:#063A1F;stroke-width:1.0;"/></g><!--link V to UC5--><g id="link_V_UC5"><path d="M403.95,1036.58 C406.87,1120.26 418.43,1318.32 463,1365.02 C487.69,1390.89 522.1826,1397.7043 554.2726,1398.6443 " fill="none" id="V-to-UC5" style="stroke:#063A1F;stroke-width:1.0;"/><polygon fill="#063A1F" points="560.27,1398.82,551.391,1394.5582,555.2721,1398.6736,551.1567,1402.5548,560.27,1398.82" style="stroke:#063A1F;stroke-width:1.0;"/></g><!--link V to UC6--><g id="link_V_UC6"><path d="M404.06,961.3 C408.96,793.09 430.6,118.35 463,88.02 C550.6,6 638.99,13.44 733,88.02 C908.47,227.22 949.0004,1015.5256 954.1404,1134.1956 " fill="none" id="V-to-UC6" style="stroke:#063A1F;stroke-width:1.0;"/><polygon fill="#063A1F" points="954.4,1140.19,958.0068,1131.0253,954.1836,1135.1947,950.0143,1131.3715,954.4,1140.19" style="stroke:#063A1F;stroke-width:1.0;"/></g><!--link V to UC7--><g id="link_V_UC7"><path d="M412.04,961.37 C423.69,911.5 443.77,820.66 455,742.02 C457.99,721.05 449.56,663.4 463,647.02 C480.82,625.31 503.1946,615.557 530.1246,610.217 " fill="none" id="V-to-UC7" style="stroke:#063A1F;stroke-width:1.0;"/><polygon fill="#063A1F" points="536.01,609.05,526.4039,606.8769,531.1055,610.0225,527.9599,614.7241,536.01,609.05" style="stroke:#063A1F;stroke-width:1.0;"/></g><!--link V to UC26--><g id="link_V_UC26"><path d="M413.53,961.24 C425.12,918.52 443.59,846.74 455,784.02 C457.6,769.7 453.34,729.91 463,719.02 C479.81,700.08 498.9514,691.4709 523.5614,686.6609 " fill="none" id="V-to-UC26" style="stroke:#063A1F;stroke-width:1.0;"/><polygon fill="#063A1F" points="529.45,685.51,519.8498,683.3107,524.5428,686.4691,521.3844,691.1621,529.45,685.51" style="stroke:#063A1F;stroke-width:1.0;"/></g><!--link V to UC27--><g id="link_V_UC27"><path d="M414.82,961.21 C425.6,926.43 441.81,873.38 455,827.02 C458.77,813.75 453.24,806.78 463,797.02 C478.95,781.06 494.8591,772.9527 516.6591,767.1927 " fill="none" id="V-to-UC27" style="stroke:#063A1F;stroke-width:1.0;"/><polygon fill="#063A1F" points="522.46,765.66,512.7368,764.0918,517.6259,766.9373,514.7804,771.8264,522.46,765.66" style="stroke:#063A1F;stroke-width:1.0;"/></g><!--link V to UC28--><g id="link_V_UC28"><path d="M411.7,961.41 C420.16,933.11 435.82,895.47 463,873.02 C481.27,857.92 499.0391,850.1644 521.9191,844.6144 " fill="none" id="V-to-UC28" style="stroke:#063A1F;stroke-width:1.0;"/><polygon fill="#063A1F" points="527.75,843.2,518.0607,841.4343,522.8909,844.3787,519.9466,849.2089,527.75,843.2" style="stroke:#063A1F;stroke-width:1.0;"/></g><!--link V to UC29--><g id="link_V_UC29"><path d="M424.15,981.62 C435.19,973.23 449.23,963.59 463,957.02 C486.09,946 506.851,938.8771 530.931,932.3171 " fill="none" id="V-to-UC29" style="stroke:#063A1F;stroke-width:1.0;"/><polygon fill="#063A1F" points="536.72,930.74,526.9851,929.2463,531.8958,932.0542,529.0878,936.965,536.72,930.74" style="stroke:#063A1F;stroke-width:1.0;"/></g><!--link V to UC30--><g id="link_V_UC30"><path d="M424.27,999.02 C446.89,999.02 478.17,999.02 513.35,999.02 " fill="none" id="V-to-UC30" style="stroke:#063A1F;stroke-width:1.0;"/><polygon fill="#063A1F" points="519.35,999.02,510.35,995.02,514.35,999.02,510.35,1003.02,519.35,999.02" style="stroke:#063A1F;stroke-width:1.0;"/></g><!--link U to UC8--><g id="link_U_UC8"><path d="M314.3,1640.27 C343.33,1596.84 397.21,1527.15 463,1493.02 C489.64,1479.2 516.0456,1472.1401 543.5056,1467.4501 " fill="none" id="U-to-UC8" style="stroke:#063A1F;stroke-width:1.0;"/><polygon fill="#063A1F" points="549.42,1466.44,539.875,1464.0123,544.4914,1467.2818,541.2219,1471.8981,549.42,1466.44" style="stroke:#063A1F;stroke-width:1.0;"/></g><!--link U to UC9--><g id="link_U_UC9"><path d="M319.01,1650.31 C328.17,1641.98 338.65,1633.17 349,1626.02 C395.95,1593.61 409.67,1587.27 463,1567.02 C489.4,1557 513.6672,1550.2046 539.6572,1544.1346 " fill="none" id="U-to-UC9" style="stroke:#063A1F;stroke-width:1.0;"/><polygon fill="#063A1F" points="545.5,1542.77,535.8261,1540.9217,540.631,1543.9072,537.6456,1548.7121,545.5,1542.77" style="stroke:#063A1F;stroke-width:1.0;"/></g><!--link U to UC10--><g id="link_U_UC10"><path d="M319.09,1663.8 C328.42,1659.52 338.99,1655.14 349,1652.02 C409.7,1633.11 474.8801,1621.4574 527.3801,1613.9674 " fill="none" id="U-to-UC10" style="stroke:#063A1F;stroke-width:1.0;"/><polygon fill="#063A1F" points="533.32,1613.12,523.8453,1610.4312,528.3701,1613.8262,524.9752,1618.351,533.32,1613.12" style="stroke:#063A1F;stroke-width:1.0;"/></g><!--link U to UC11--><g id="link_U_UC11"><path d="M319.22,1678.02 C364.75,1678.02 450.17,1678.02 518.21,1678.02 " fill="none" id="U-to-UC11" style="stroke:#063A1F;stroke-width:1.0;"/><polygon fill="#063A1F" points="524.21,1678.02,515.21,1674.02,519.21,1678.02,515.21,1682.02,524.21,1678.02" style="stroke:#063A1F;stroke-width:1.0;"/></g><!--link U to UC12--><g id="link_U_UC12"><path d="M319.22,1684.59 C370.75,1696.58 475.2361,1720.8901 543.9061,1736.8701 " fill="none" id="U-to-UC12" style="stroke:#063A1F;stroke-width:1.0;"/><polygon fill="#063A1F" points="549.75,1738.23,541.8908,1732.2942,544.8801,1737.0967,540.0776,1740.086,549.75,1738.23" style="stroke:#063A1F;stroke-width:1.0;"/></g><!--link U to UC13--><g id="link_U_UC13"><path d="M319.07,1700.6 C351.76,1725.8 408.28,1766.03 463,1789.02 C491.75,1801.1 519.7279,1808.0204 547.6079,1813.1204 " fill="none" id="U-to-UC13" style="stroke:#063A1F;stroke-width:1.0;"/><polygon fill="#063A1F" points="553.51,1814.2,545.3767,1808.6458,548.5916,1813.3003,543.9371,1816.5152,553.51,1814.2" style="stroke:#063A1F;stroke-width:1.0;"/></g><!--link U to UC14--><g id="link_U_UC14"><path d="M317.09,1715.74 C347.37,1756.53 401.14,1820.35 463,1855.02 C486.47,1868.17 508.6,1876.0119 533.73,1882.4919 " fill="none" id="U-to-UC14" style="stroke:#063A1F;stroke-width:1.0;"/><polygon fill="#063A1F" points="539.54,1883.99,531.8238,1877.8695,534.6984,1882.7415,529.8263,1885.6161,539.54,1883.99" style="stroke:#063A1F;stroke-width:1.0;"/></g><!--link U to UC31--><g id="link_U_UC31"><path d="M304.58,1715.75 C327.57,1773.82 379.92,1884.12 463,1939.02 C482.47,1951.89 500.1522,1959.2624 522.5122,1965.5224 " fill="none" id="U-to-UC31" style="stroke:#063A1F;stroke-width:1.0;"/><polygon fill="#063A1F" points="528.29,1967.14,520.7016,1960.8617,523.4751,1965.792,518.5449,1968.5655,528.29,1967.14" style="stroke:#063A1F;stroke-width:1.0;"/></g><!--link U to UC32--><g id="link_U_UC32"><path d="M297.44,1715.78 C312.13,1789.08 355.54,1949.85 463,2023.02 C481.97,2035.94 499.1273,2043.2841 521.1473,2049.5241 " fill="none" id="U-to-UC32" style="stroke:#063A1F;stroke-width:1.0;"/><polygon fill="#063A1F" points="526.92,2051.16,519.3515,2044.8578,522.1094,2049.7968,517.1704,2052.5547,526.92,2051.16" style="stroke:#063A1F;stroke-width:1.0;"/></g><!--link E to UC15--><g id="link_E_UC15"><path d="M177.03,1007.71 C177.98,1120.11 187.21,1462.03 261,1733.02 C310.64,1915.3 307.09,2000.34 463,2107.02 C485.53,2122.43 507.88,2130.8318 533.45,2137.0518 " fill="none" id="E-to-UC15" style="stroke:#063A1F;stroke-width:1.0;"/><polygon fill="#063A1F" points="539.28,2138.47,531.4805,2132.4561,534.4217,2137.2882,529.5896,2140.2294,539.28,2138.47" style="stroke:#063A1F;stroke-width:1.0;"/></g><!--link E to UC16--><g id="link_E_UC16"><path d="M177.21,1007.72 C178.55,1165.65 188.43,1774.01 261,1949.02 C314.67,2078.43 345.63,2114.51 463,2191.02 C487.64,2207.08 512.6627,2215.7751 539.6627,2221.9851 " fill="none" id="E-to-UC16" style="stroke:#063A1F;stroke-width:1.0;"/><polygon fill="#063A1F" points="545.51,2223.33,537.6356,2217.4145,540.6372,2222.2093,535.8424,2225.2109,545.51,2223.33" style="stroke:#063A1F;stroke-width:1.0;"/></g><!--link E to UC17--><g id="link_E_UC17"><path d="M178.2,1007.6 C184.21,1189.73 212.8,1975.74 261,2073.02 C317.36,2186.79 352.21,2213 463,2275.02 C488.02,2289.03 512.5955,2296.34 539.2255,2301.4 " fill="none" id="E-to-UC17" style="stroke:#063A1F;stroke-width:1.0;"/><polygon fill="#063A1F" points="545.12,2302.52,537.0249,2296.9103,540.2079,2301.5866,535.5315,2304.7696,545.12,2302.52" style="stroke:#063A1F;stroke-width:1.0;"/></g><!--link E to UC18--><g id="link_E_UC18"><path d="M177.76,1007.67 C181.91,1200.46 203.72,2072.18 261,2177.02 C316.85,2279.25 360.15,2289.34 463,2344.02 C487.96,2357.29 511.7642,2365.466 537.7642,2372.246 " fill="none" id="E-to-UC18" style="stroke:#063A1F;stroke-width:1.0;"/><polygon fill="#063A1F" points="543.57,2373.76,535.8706,2367.6185,538.7318,2372.4983,533.8519,2375.3596,543.57,2373.76" style="stroke:#063A1F;stroke-width:1.0;"/></g><!--link E to UC19--><g id="link_E_UC19"><path d="M177.16,932.21 C178.79,844.26 190.16,620.51 261,451.02 C319.35,311.43 336.27,259.66 463,177.02 C479.85,166.03 493.8636,159.5441 513.2536,153.2441 " fill="none" id="E-to-UC19" style="stroke:#063A1F;stroke-width:1.0;"/><polygon fill="#063A1F" points="518.96,151.39,509.1644,150.3668,514.2047,152.935,511.6365,157.9753,518.96,151.39" style="stroke:#063A1F;stroke-width:1.0;"/></g><!--link E to UC20--><g id="link_E_UC20"><path d="M179.25,932.33 C184.9,856.15 203.62,679.56 261,544.02 C322.67,398.37 332.55,340.46 463,251.02 C484.35,236.38 505.1561,228.8006 529.8461,223.4506 " fill="none" id="E-to-UC20" style="stroke:#063A1F;stroke-width:1.0;"/><polygon fill="#063A1F" points="535.71,222.18,526.067,220.1767,530.8234,223.2389,527.7612,227.9952,535.71,222.18" style="stroke:#063A1F;stroke-width:1.0;"/></g><!--link E to UC21--><g id="link_E_UC21"><path d="M181.84,932.24 C198.25,820.92 262.38,492.13 463,335.02 C484.28,318.35 506.0931,309.6894 531.5931,303.6194 " fill="none" id="E-to-UC21" style="stroke:#063A1F;stroke-width:1.0;"/><polygon fill="#063A1F" points="537.43,302.23,527.7484,300.4228,532.5659,303.3878,529.6009,308.2054,537.43,302.23" style="stroke:#063A1F;stroke-width:1.0;"/></g><!--link E to UC33--><g id="link_E_UC33"><path d="M190.07,932.21 C205.24,889.71 231.93,819.06 261,761.02 C335.3,612.65 384.24,592.11 455,442.02 C459.62,432.23 455.14,426.46 463,419.02 C483.21,399.89 505.687,390.6649 532.037,384.9349 " fill="none" id="E-to-UC33" style="stroke:#063A1F;stroke-width:1.0;"/><polygon fill="#063A1F" points="537.9,383.66,528.2556,381.6638,533.0142,384.7225,529.9555,389.4811,537.9,383.66" style="stroke:#063A1F;stroke-width:1.0;"/></g><!--link E to UC36--><g id="link_E_UC36"><path d="M199.76,932.23 C216.63,904.25 240.2,865.23 261,831.02 C346.83,689.89 384.35,663.33 455,514.02 C459.63,504.24 455,498.31 463,491.02 C482.01,473.7 502.1142,465.5453 526.9142,460.6353 " fill="none" id="E-to-UC36" style="stroke:#063A1F;stroke-width:1.0;"/><polygon fill="#063A1F" points="532.8,459.47,523.1945,457.2941,527.8952,460.4411,524.7482,465.1418,532.8,459.47" style="stroke:#063A1F;stroke-width:1.0;"/></g><!--link E to UC37--><g id="link_E_UC37"><path d="M200.13,949.13 C254.83,898.24 392.25,761.29 455,616.02 C464.45,594.15 446.95,580.62 463,563.02 C480.77,543.54 501.3357,534.8976 526.8857,530.2776 " fill="none" id="E-to-UC37" style="stroke:#063A1F;stroke-width:1.0;"/><polygon fill="#063A1F" points="532.79,529.21,523.2219,526.8753,527.8698,530.0997,524.6454,534.7476,532.79,529.21" style="stroke:#063A1F;stroke-width:1.0;"/></g><!--link A to UC22--><g id="link_A_UC22"><path d="M86.01,2591.39 C109.32,2571.44 141.39,2551.02 175,2551.02 C175,2551.02 175,2551.02 403,2551.02 C445.58,2551.02 487.0838,2549.934 525.7438,2548.554 " fill="none" id="A-to-UC22" style="stroke:#063A1F;stroke-width:1.0;"/><polygon fill="#063A1F" points="531.74,2548.34,522.603,2544.6636,526.7432,2548.5184,522.8884,2552.6585,531.74,2548.34" style="stroke:#063A1F;stroke-width:1.0;"/></g><!--link A to UC23--><g id="link_A_UC23"><path d="M91.05,2629.02 C115.49,2629.02 147,2629.02 175,2629.02 C175,2629.02 175,2629.02 403,2629.02 C438.14,2629.02 470.65,2629.02 504.76,2629.02 " fill="none" id="A-to-UC23" style="stroke:#063A1F;stroke-width:1.0;"/><polygon fill="#063A1F" points="510.76,2629.02,501.76,2625.02,505.76,2629.02,501.76,2633.02,510.76,2629.02" style="stroke:#063A1F;stroke-width:1.0;"/></g><!--link A to UC24--><g id="link_A_UC24"><path d="M88.16,2666.74 C111.38,2685.42 142.64,2704.02 175,2704.02 C175,2704.02 175,2704.02 403,2704.02 C441.64,2704.02 478.3424,2704.7406 514.8024,2705.7706 " fill="none" id="A-to-UC24" style="stroke:#063A1F;stroke-width:1.0;"/><polygon fill="#063A1F" points="520.8,2705.94,511.9165,2701.6874,515.802,2705.7988,511.6906,2709.6843,520.8,2705.94" style="stroke:#063A1F;stroke-width:1.0;"/></g><!--link A to UC25--><g id="link_A_UC25"><path d="M61.34,2666.54 C78.43,2712.41 114.75,2784.02 175,2784.02 C175,2784.02 175,2784.02 403,2784.02 C444.32,2784.02 484.2926,2784.8649 522.3026,2785.9749 " fill="none" id="A-to-UC25" style="stroke:#063A1F;stroke-width:1.0;"/><polygon fill="#063A1F" points="528.3,2786.15,519.4206,2781.889,523.3021,2786.004,519.1871,2789.8856,528.3,2786.15" style="stroke:#063A1F;stroke-width:1.0;"/></g><!--link A to UC34--><g id="link_A_UC34"><path d="M52.63,2666.62 C60.43,2732.76 86.95,2863.02 175,2863.02 C175,2863.02 175,2863.02 403,2863.02 C445.39,2863.02 486.6717,2863.7369 525.2417,2864.6569 " fill="none" id="A-to-UC34" style="stroke:#063A1F;stroke-width:1.0;"/><polygon fill="#063A1F" points="531.24,2864.8,522.3379,2860.5865,526.2414,2864.6808,522.1472,2868.5842,531.24,2864.8" style="stroke:#063A1F;stroke-width:1.0;"/></g><!--link A to UC35--><g id="link_A_UC35"><path d="M60.76,2591.34 C77.41,2544.32 113.46,2470.02 175,2470.02 C175,2470.02 175,2470.02 403,2470.02 C443.78,2470.02 483.0916,2469.3699 520.8116,2468.4899 " fill="none" id="A-to-UC35" style="stroke:#063A1F;stroke-width:1.0;"/><polygon fill="#063A1F" points="526.81,2468.35,517.7192,2464.561,521.8114,2468.4666,517.9057,2472.5588,526.81,2468.35" style="stroke:#063A1F;stroke-width:1.0;"/></g><!--link UC9 to UC6--><g id="link_UC9_UC6"><path d="M678.56,1518.48 C697.45,1512.97 717.14,1504.88 733,1493.02 C855.29,1401.58 927.9066,1227.1517 947.6166,1175.0617 " fill="none" id="UC9-to-UC6" style="stroke:#063A1F;stroke-width:1.0;stroke-dasharray:7.0,7.0;"/><polygon fill="#063A1F" points="949.74,1169.45,942.8138,1176.452,947.9705,1174.1264,950.2961,1179.2831,949.74,1169.45" style="stroke:#063A1F;stroke-width:1.0;"/><text fill="#000000" font-family="sans-serif" font-size="13" lengthAdjust="spacing" textLength="53" x="787.5" y="1326.5151">&#171;extend&#187;</text><text fill="#000000" font-family="sans-serif" font-size="13" lengthAdjust="spacing" textLength="100" x="764" y="1342.8667">[si non connect&#233;]</text></g><!--link UC31 to UC6--><g id="link_UC31_UC6"><path d="M689.27,1966.21 C705.41,1960.06 721.1,1951.35 733,1939.02 C847.6,1820.34 936.7402,1273.0091 951.8502,1175.6091 " fill="none" id="UC31-to-UC6" style="stroke:#063A1F;stroke-width:1.0;stroke-dasharray:7.0,7.0;"/><polygon fill="#063A1F" points="952.77,1169.68,947.4376,1177.9604,952.0035,1174.6209,955.343,1179.1868,952.77,1169.68" style="stroke:#063A1F;stroke-width:1.0;"/><text fill="#000000" font-family="sans-serif" font-size="13" lengthAdjust="spacing" textLength="53" x="787.5" y="1609.5151">&#171;extend&#187;</text><text fill="#000000" font-family="sans-serif" font-size="13" lengthAdjust="spacing" textLength="100" x="764" y="1625.8667">[si non connect&#233;]</text></g><!--link UC7 to UC6--><g id="link_UC7_UC6"><path d="M676.19,616.74 C696.31,622.99 717.28,632.51 733,647.02 C891.81,793.54 941.9079,1067.8182 952.0579,1134.5582 " fill="none" id="UC7-to-UC6" style="stroke:#063A1F;stroke-width:1.0;stroke-dasharray:7.0,7.0;"/><polygon fill="#063A1F" points="952.96,1140.49,955.5613,1130.9909,952.2082,1135.5468,947.6523,1132.1937,952.96,1140.49" style="stroke:#063A1F;stroke-width:1.0;"/><text fill="#000000" font-family="sans-serif" font-size="13" lengthAdjust="spacing" textLength="55" x="786.5" y="675.5151">&#171;include&#187;</text></g><!--SRC=[tLZRZjis47ttLmmS84w0RkBhsWw20AeiRmpuil0DBUe-Q2NQIqGc5PBQpVO2z2Fw4_uE_qc_f4F9agoDj6c1l6YpUHYGFEHmvimPoZNuv- -_olY_KeFrQ6d1IxYQhUOJOpe0SpQUpU7Q65lBfONpPRsP_4IPRmjx3pUsysadUC1SatjSm8jX7_-wbRCbFYwnTmH-hm3y-DNo-h0pREWPBbmYeb7zxqNzicKqXZWpv4obuuzd5lGtSfg0HYiUL0zUF7h3FRVovxb3jgDmirnt1crZsEf-BtUQ_ycTG1B7bldneUoM2Aho7EhLw_Lc_Jiv1608mU_FjebtGLSzibMWE0YwkrNWKa4SHJchb9Z0DJ3CvMo-AF4L8XPNrrHIHG9HFQNJbh2EvrQAUbJQoJJEhU8vQ-zx_E5uY75wqeed3NTF6PLAdB0uPpo7TCDe-j6QZvR6rDJoQt9sHvZcCgmcutVWt5BFFSc3pobJKjCUgnGNHSDQqqy11ugpjmGL46itdFm1pkB6amLxBXL8dpZKzh0OtHB7SGKN5tzyG89PaR6g695XbPiTguK5fh6mogm7SPkj6hxlKSSEQRr6gke720_4tcPk5PiCQdryIRWERd0fCFkExYB0QJD8kb8LYqG6dY82F29XJrWWD-mbRAcd197dyh4o6qL0S8y7PLDlmznQmC9TiiZc8wJ2YjB86fQU8BwWaYI03B1LxAjvjTQUJg8Ib-0T3plRqpw7o7Oc54Q0jOeBdQ8uB6gKIKTWz_lAaTIRJWP1mE6C4NsJQX7YyXmnFnvGFvGM2ad4XdbQFR3b4XGXgICGGhgF3i7OFd5E2Ebbxhh2pL6HR8VatFDQdoGWODhxlMRDumk7E_RFCHFkqYrz2XNHetuECXWBl2TFYa0PKYq2UYS8I4nlZ95ve0oVnZOztGcGwR9Qa8f6A_TE-YpAjXnfxnCXTQIzb4MDB8sYjaf8ONYlZWUHhQLNvdmrU9qNuqQd0EbxjdeQULc0lEN2feB8GZuskWL8gMmLw5FThzCL8NlVoYwymbuAvFJo21sFa1ao3KDbYGujo76Y6Xb2hR5iy8qCRs5Eja5OG3aPZu2DRF5d-dPHwannF4GiGhTyHJQCF7v4nTjdw3Su7YJA6Rrx2XpXdb0p7NzqaNuE7gjkirqekwQnqLyP8TNU-fXCojrOHfgTB7CTVe74y15ERn2AOVjcGx1Hbx3bp1TMKKqrBujlv12XiCGYnSt9KRSOYdTIXEKnEOBs2g0ryiNNfqeIyjYh7G-V0-gJynpqYu_bsosUk64sDegBdIrzwdaOW6hSY-fPQCJTg0P2Q1xo1CsgNCs-qJeZm0w-0FOil6tUiH6qML2nnTwctRELYzLz2-CR56JsX6qNd5kSrnHRg6o5YKsnkTfsec8cdtdWhlwYhPNwDwN52Bzbm5WiPkR8M8vcqp8_MzVu0V4XV3h6LZEnMedLJgnEObqcLZV5feFDiz5UQlRJtUkb_sXvDYnOdNBIIwn-Ok6hCJ4RgTbCpLPgjXEpbQv5XInrfgt9zNZsisKzbsnRSROwgNcPcjtKxALcFp7nrPUOZSJ4LfQOwMQez-N-tMem6Kr7Y-NSU4QQRyJPQwPcApNRgTb9p5OwYe-7KkTqD3N7gu65todMJqjhEe2vDOvo-d5qhVEAwlTM2nYyVq- -u7F8_H3sktVnpmdwNIu8FdG4SO4pxm7e5XXNuF7T3eSe2pVf8fuonmjS4c-WVqQuvy95k2GANvRtzeF-kWqNIOqFiQLj8sOVuCsRyBBmxYny6_QBf1WY5eVmUFYr4eRuVwpkPlTEGblv5m00]--></g></svg>